<svg width="72" height="71" viewBox="0 0 72 71" fill="none" xmlns="http://www.w3.org/2000/svg">
<path d="M21.9339 30.4286C16.912 27.5694 10.4668 28.9668 7.52908 30.1422C7.31598 30.2275 7.07646 30.1626 6.94699 29.9795C6.82571 29.808 6.83146 29.5744 6.97386 29.412C8.07299 28.1589 10.6252 26.0578 11.847 25.1007C24.6955 15.0354 43.8901 19.7766 52.2617 23.5655C59.0956 26.6584 67.1453 31.9448 70.9922 34.6546C71.2363 34.8266 71.3681 35.1151 71.3436 35.4173C71.3064 35.8779 70.9214 36.2407 70.4602 36.2585C67.203 36.384 60.5024 36.989 58.3936 38.1579C51.4763 41.9924 44.1293 39.9193 40.7674 37.6289C36.8963 34.9916 33.7178 32.5181 31.6325 32.548C28.0181 32.5998 24.0076 31.6092 21.9339 30.4286Z" stroke="#FEC52D"/>
<path d="M31.4275 20.9349C28.5683 15.913 29.9657 9.46774 31.1411 6.53006C31.2264 6.31696 31.1615 6.07743 30.9784 5.94796C30.8069 5.82668 30.5733 5.83243 30.4109 5.97483C29.1578 7.07397 27.0567 9.62621 26.0996 10.848C16.0343 23.6965 20.7755 42.891 24.5644 51.2627C27.6573 58.0966 32.9437 66.1463 35.6535 69.9932C35.8255 70.2372 36.114 70.3691 36.4162 70.3446C36.8768 70.3073 37.2396 69.9223 37.2574 69.4611C37.3829 66.204 37.9879 59.5033 39.1568 57.3946C42.9913 50.4772 40.9182 43.1302 38.6278 39.7684C35.9905 35.8973 33.517 32.7188 33.5469 30.6335C33.5987 27.0191 32.6081 23.0086 31.4275 20.9349Z" stroke="#FEC52D"/>
</svg>
