<svg width="18" height="18" viewBox="0 0 18 18" fill="none" xmlns="http://www.w3.org/2000/svg">
<path d="M2.25098 0.0593082L8.43848 2.69853V15.094L2.25098 12.2175V0.0593082Z" fill="#6A5D60"/>
<path d="M9.56348 2.69853L15.751 0V12.1582L9.56348 15.094V2.69853Z" fill="#6A5D60"/>
<path d="M17.0407 1.00397C17.1462 0.892743 17.2893 0.830258 17.4385 0.830258C17.5877 0.830258 17.7307 0.892743 17.8362 1.00397C17.9417 1.11519 18.001 1.26605 18.001 1.42334V13.374C17.9992 13.4877 17.9664 13.5985 17.9066 13.6931C17.8467 13.7877 17.7624 13.8622 17.6635 13.9077L9.22598 17.9407L9.00098 18L8.77598 17.9407L0.338477 13.9077C0.239599 13.8622 0.155211 13.7877 0.095371 13.6931C0.0355314 13.5985 0.00276464 13.4877 0.000976562 13.374V1.42334C0.000976562 1.26605 0.0602398 1.11519 0.165729 1.00397C0.271218 0.892743 0.414292 0.830258 0.563477 0.830258C0.712661 0.830258 0.855735 0.892743 0.961224 1.00397C1.06671 1.11519 1.12598 1.26605 1.12598 1.42334V12.9885L9.00098 16.7842L16.876 12.9885V1.42334C16.876 1.26605 16.9352 1.11519 17.0407 1.00397Z" fill="#6A5D60"/>
</svg>
