<svg width="138" height="78" viewBox="0 0 138 78" fill="none" xmlns="http://www.w3.org/2000/svg">
<path d="M2.4283 4.34456C3.24836 5.51572 3.56832 6.96546 3.31788 8.37496C3.06743 9.78446 2.26705 11.0382 1.09284 11.8604M1.09284 11.8604C1.67425 11.4533 2.32995 11.1644 3.02247 11.0101C3.71504 10.856 4.43087 10.8395 5.12908 10.9616C5.82734 11.0838 6.4943 11.3423 7.09192 11.7222C7.68955 12.1021 8.20613 12.5962 8.61216 13.176M1.09284 11.8604C13.9192 2.87929 38.4305 -7.91542 39.6806 15.3934C40.3644 28.1423 47.889 49.9888 74.8002 43.2531C83.2923 41.1275 99.7206 34.3735 97.497 24.3617C95.9882 17.5679 85.1835 10.0067 83.4709 24.3924C81.838 38.1089 90.31 66.644 136.625 76.4047" stroke="#28060E" stroke-width="2" stroke-linecap="round" stroke-linejoin="round"/>
</svg>
