<svg width="21" height="18" viewBox="0 0 21 18" fill="none" xmlns="http://www.w3.org/2000/svg">
<path d="M20.6611 0C20.7448 0 20.8277 0.030251 20.8919 0.0880593C20.995 0.180718 21.0289 0.32613 20.9769 0.453309L14.4183 16.6148C14.3571 16.7655 14.2345 16.8849 14.0802 16.9445C14.0095 16.9716 13.9352 16.985 13.8602 16.985C13.7723 16.985 13.6835 16.966 13.6021 16.9279L6.97779 13.8448L16.2926 4.69553L5.66031 13.2317L0.342798 10.7567C0.13509 10.6599 0.00238771 10.4556 0.000987716 10.2309C-0.000412278 10.0059 0.130084 9.80019 0.336307 9.70119L20.5126 0.0338148C20.5602 0.0109401 20.6106 0 20.6611 0Z" fill="white"/>
<path d="M7.1698 17.9616C7.05869 17.9042 6.98881 17.7915 6.98881 17.6686L6.98886 15.0482L9.85672 16.3834L7.51958 17.9422C7.41581 18.0116 7.28082 18.019 7.1698 17.9616Z" fill="white"/>
</svg>
