<svg width="82" height="24" viewBox="0 0 82 24" fill="none" xmlns="http://www.w3.org/2000/svg">
<path d="M6.456 21V6.072H0.984V3.24H15.192V6.072H9.72V21H6.456ZM19.77 21.24C18.442 21.24 17.434 20.832 16.746 20.016C16.074 19.2 15.738 18.152 15.738 16.872V8.28H18.906V16.344C18.906 17.032 19.09 17.584 19.458 18C19.826 18.4 20.346 18.6 21.018 18.6C21.61 18.6 22.09 18.448 22.458 18.144C22.826 17.84 23.09 17.448 23.25 16.968C23.426 16.488 23.514 15.992 23.514 15.48V8.28H26.706V21H23.514V19.176H23.37C23.21 19.464 22.978 19.768 22.674 20.088C22.386 20.408 22.002 20.68 21.522 20.904C21.058 21.128 20.474 21.24 19.77 21.24ZM35.4193 21.24C34.5553 21.24 33.8433 21.112 33.2833 20.856C32.7233 20.6 32.2833 20.264 31.9633 19.848C31.6593 19.432 31.4433 18.976 31.3153 18.48C31.1873 17.984 31.1233 17.496 31.1233 17.016V10.848H28.9393V8.28H31.1233V5.112H34.3153V8.28H37.1713V10.848H34.3153V16.944C34.3153 18.08 34.9553 18.648 36.2353 18.648C36.5393 18.648 36.8193 18.632 37.0753 18.6C37.3473 18.552 37.4833 18.528 37.4833 18.528V21.024C37.4833 21.024 37.2753 21.056 36.8593 21.12C36.4593 21.2 35.9793 21.24 35.4193 21.24ZM46.1443 21.24C44.7523 21.24 43.5683 20.928 42.5923 20.304C41.6163 19.68 40.8723 18.872 40.3603 17.88C39.8643 16.872 39.6163 15.792 39.6163 14.64C39.6163 13.488 39.8643 12.416 40.3603 11.424C40.8723 10.416 41.6163 9.6 42.5923 8.976C43.5683 8.352 44.7523 8.04 46.1443 8.04C47.5523 8.04 48.7363 8.352 49.6963 8.976C50.6723 9.6 51.4083 10.416 51.9043 11.424C52.4163 12.416 52.6723 13.488 52.6723 14.64C52.6723 15.792 52.4163 16.872 51.9043 17.88C51.4083 18.872 50.6723 19.68 49.6963 20.304C48.7363 20.928 47.5523 21.24 46.1443 21.24ZM46.1443 18.576C46.8643 18.576 47.4643 18.392 47.9443 18.024C48.4403 17.656 48.8163 17.176 49.0723 16.584C49.3283 15.976 49.4563 15.328 49.4563 14.64C49.4563 13.936 49.3283 13.288 49.0723 12.696C48.8163 12.104 48.4403 11.624 47.9443 11.256C47.4643 10.888 46.8643 10.704 46.1443 10.704C45.4403 10.704 44.8403 10.888 44.3443 11.256C43.8483 11.624 43.4723 12.104 43.2163 12.696C42.9603 13.288 42.8323 13.936 42.8323 14.64C42.8323 15.328 42.9603 15.976 43.2163 16.584C43.4723 17.176 43.8483 17.656 44.3443 18.024C44.8403 18.392 45.4403 18.576 46.1443 18.576ZM55.4646 21V8.28H58.6326V10.032H58.7526C58.9766 9.536 59.3446 9.08 59.8566 8.664C60.3686 8.248 61.1366 8.04 62.1606 8.04C62.4806 8.04 62.7446 8.064 62.9526 8.112C63.1606 8.144 63.2646 8.16 63.2646 8.16V11.256C63.2646 11.256 63.1446 11.24 62.9046 11.208C62.6806 11.176 62.4006 11.16 62.0646 11.16C60.9446 11.16 60.0966 11.472 59.5206 12.096C58.9446 12.72 58.6566 13.728 58.6566 15.12V21H55.4646Z" fill="#28060E"/>
<path d="M81.0667 0H68.9333V1.42857H81.0667V0Z" fill="#FF2359"/>
<path d="M81.5333 9.04762H81.0667V2.38095H68.9333V9.04762H68.4667C68.3429 9.04762 68.2242 9.09779 68.1367 9.18709C68.0492 9.27639 68 9.39752 68 9.52381C68 9.6501 68.0492 9.77122 68.1367 9.86053C68.2242 9.94983 68.3429 10 68.4667 10H81.5333C81.6571 10 81.7758 9.94983 81.8633 9.86053C81.9508 9.77122 82 9.6501 82 9.52381C82 9.39752 81.9508 9.27639 81.8633 9.18709C81.7758 9.09779 81.6571 9.04762 81.5333 9.04762Z" fill="#FF2359"/>
</svg>
