<svg width="32" height="31" viewBox="0 0 32 31" fill="none" xmlns="http://www.w3.org/2000/svg">
<path d="M15.8098 0.58541C15.8697 0.401148 16.1303 0.401148 16.1902 0.58541L19.7718 11.6085C19.7986 11.6909 19.8754 11.7467 19.962 11.7467L31.5524 11.7467C31.7462 11.7467 31.8267 11.9946 31.67 12.1085L22.2932 18.9212C22.2231 18.9721 22.1937 19.0624 22.2205 19.1448L25.8021 30.1679C25.862 30.3521 25.6511 30.5054 25.4944 30.3915L16.1176 23.5788C16.0475 23.5279 15.9525 23.5279 15.8824 23.5788L6.50563 30.3915C6.34889 30.5054 6.13799 30.3521 6.19786 30.1679L9.77949 19.1448C9.80626 19.0624 9.77693 18.9721 9.70683 18.9212L0.330019 12.1085C0.173276 11.9946 0.253831 11.7467 0.447576 11.7467L12.038 11.7467C12.1246 11.7467 12.2014 11.6909 12.2282 11.6085L15.8098 0.58541Z" fill="white"/>
</svg>
