<svg width="16" height="15" viewBox="0 0 16 15" fill="none" xmlns="http://www.w3.org/2000/svg">
<path d="M7.81077 0.585409C7.87064 0.401147 8.13132 0.401148 8.19119 0.58541L9.75219 5.38967C9.77896 5.47207 9.85575 5.52786 9.9424 5.52786H14.9939C15.1876 5.52786 15.2682 5.77579 15.1114 5.88967L11.0247 8.85886C10.9546 8.90979 10.9253 9.00006 10.952 9.08247L12.513 13.8867C12.5729 14.071 12.362 14.2242 12.2053 14.1103L8.11853 11.1411C8.04844 11.0902 7.95352 11.0902 7.88342 11.1411L3.79667 14.1103C3.63993 14.2242 3.42904 14.071 3.48891 13.8867L5.0499 9.08247C5.07668 9.00006 5.04735 8.90979 4.97725 8.85886L0.890503 5.88967C0.73376 5.77579 0.814316 5.52786 1.00806 5.52786H6.05956C6.1462 5.52786 6.22299 5.47207 6.24977 5.38967L7.81077 0.585409Z" fill="#F6B32D"/>
</svg>
