<svg width="18" height="18" viewBox="0 0 18 18" fill="none" xmlns="http://www.w3.org/2000/svg">
<path d="M14.0635 13.7812C11.701 13.3313 11.701 12.825 11.701 12.4875V11.7C12.3081 11.0721 12.7607 10.3113 13.0229 9.47813C13.8947 9.19688 14.2041 8.04375 14.2041 7.50938V7.425C14.2041 7.11562 14.2604 6.44062 13.8385 5.99062C13.7429 5.88572 13.6284 5.79984 13.501 5.7375V2.98125L16.9885 2.25C17.1377 2.24627 17.2793 2.18343 17.3821 2.0753C17.485 1.96718 17.5406 1.82262 17.5369 1.67344C17.5332 1.52425 17.4703 1.38266 17.3622 1.27981C17.2541 1.17696 17.1095 1.12127 16.9604 1.125L9.08535 0H8.9166L1.0416 1.125C0.892417 1.12127 0.747862 1.17696 0.639735 1.27981C0.531609 1.38266 0.468769 1.52425 0.465039 1.67344C0.461309 1.82262 0.516996 1.96718 0.619848 2.0753C0.7227 2.18343 0.864292 2.24627 1.01348 2.25H1.12598V8.4375C1.12598 8.58668 1.18524 8.72976 1.29073 8.83525C1.39622 8.94074 1.53929 9 1.68848 9C1.83766 9 1.98073 8.94074 2.08622 8.83525C2.19171 8.72976 2.25098 8.58668 2.25098 8.4375V2.50312L4.50098 2.98125V5.7375C3.8541 6.01875 3.57285 6.77813 3.57285 7.50938C3.57285 8.24063 3.88223 9.19688 4.7541 9.47813C5.02017 10.3013 5.47252 11.052 6.07598 11.6719V12.5156C6.07598 12.5719 6.1041 13.3313 3.71348 13.7812C0.788477 14.3438 0.000976562 16.425 0.000976562 17.4375V18H18.001V17.4375C18.001 17.325 17.9447 14.5406 14.0635 13.7812ZM7.20098 12.4875C7.32203 12.4843 7.43882 12.4422 7.534 12.3673C7.62917 12.2924 7.69765 12.1889 7.72924 12.072C7.76083 11.9551 7.75386 11.8311 7.70936 11.7185C7.66485 11.6058 7.5852 11.5106 7.48223 11.4469C6.59291 10.8448 5.9609 9.93185 5.71035 8.8875L5.62598 8.4375H5.17598C4.83848 8.4375 4.66973 7.70625 4.66973 7.50938C4.66973 7.3125 4.69785 6.75 5.06348 6.75H5.62598V5.14687L9.00098 5.625L12.376 5.14687V6.75H13.0229C13.0791 6.80625 13.1072 6.94688 13.1072 7.36875V7.50938C13.1072 7.56563 12.9104 8.4375 12.5729 8.4375H12.151L12.0385 8.85938C11.7879 9.90372 11.1559 10.8166 10.2666 11.4187C10.1636 11.4825 10.084 11.5777 10.0395 11.6903C9.99497 11.803 9.98799 11.9269 10.0196 12.0438C10.0512 12.1607 10.1197 12.2643 10.2148 12.3392C10.31 12.414 10.4268 12.4562 10.5479 12.4594C10.5197 13.3031 10.8291 13.95 12.2072 14.4563L9.00098 16.7344L5.73848 14.4C6.94785 13.9219 7.2291 13.275 7.20098 12.4875Z" fill="#6A5D60"/>
</svg>
